<svg width="32" height="32" viewBox="0 0 32 32" fill="none" xmlns="http://www.w3.org/2000/svg">
<g clip-path="url(#clip0_6_28)">
<rect width="32" height="32" fill="black"/>
<path d="M22.9931 20.672C22.9931 21.92 22.6811 22.964 22.0571 23.804C21.4331 24.644 20.5451 25.28 19.3931 25.712C18.2411 26.144 16.8731 26.36 15.2891 26.36C13.9451 26.36 12.7811 26.252 11.7971 26.036C10.8371 25.82 9.98514 25.52 9.24114 25.136V22.256C10.0091 22.64 10.9331 23 12.0131 23.336C13.1171 23.648 14.2331 23.804 15.3611 23.804C16.9691 23.804 18.1331 23.552 18.8531 23.048C19.5731 22.52 19.9331 21.824 19.9331 20.96C19.9331 20.48 19.8011 20.048 19.5371 19.664C19.2731 19.28 18.7931 18.896 18.0971 18.512C17.4251 18.128 16.4531 17.696 15.1811 17.216C13.9331 16.736 12.8651 16.256 11.9771 15.776C11.0891 15.296 10.4051 14.72 9.92514 14.048C9.44514 13.376 9.20514 12.512 9.20514 11.456C9.20514 9.824 9.86514 8.564 11.1851 7.676C12.5291 6.788 14.2811 6.344 16.4411 6.344C17.6171 6.344 18.7091 6.464 19.7171 6.704C20.7491 6.92 21.7091 7.232 22.5971 7.64L21.5171 10.16C20.9891 9.92 20.4251 9.716 19.8251 9.548C19.2491 9.356 18.6611 9.212 18.0611 9.116C17.4611 8.996 16.8491 8.936 16.2251 8.936C14.9291 8.936 13.9331 9.152 13.2371 9.584C12.5651 9.992 12.2291 10.556 12.2291 11.276C12.2291 11.804 12.3851 12.26 12.6971 12.644C13.0091 13.004 13.5251 13.364 14.2451 13.724C14.9891 14.06 15.9731 14.468 17.1971 14.948C18.4211 15.404 19.4651 15.872 20.3291 16.352C21.1931 16.832 21.8531 17.42 22.3091 18.116C22.7651 18.788 22.9931 19.64 22.9931 20.672Z" fill="white"/>
</g>
<defs>
<clipPath id="clip0_6_28">
<rect width="32" height="32" fill="white"/>
</clipPath>
</defs>
</svg>
